<svg width="227" height="74" viewBox="0 0 227 74" fill="none" xmlns="http://www.w3.org/2000/svg">
<rect x="21" width="206" height="44" rx="12" fill="#304474"/>
<rect y="30" width="206" height="44" rx="12" fill="#304474"/>
<path d="M56.992 18.296H77.584V22.76H61.648V33.848H75.616V38.264H61.648V53H56.992V18.296ZM83.3099 33.128H87.7739V53H83.3099V33.128ZM82.9739 25.928C82.9739 25.224 83.2459 24.632 83.7899 24.152C84.3659 23.672 84.9899 23.432 85.6619 23.432C86.3339 23.432 86.9259 23.672 87.4379 24.152C87.9819 24.632 88.2539 25.224 88.2539 25.928C88.2539 26.664 87.9819 27.272 87.4379 27.752C86.9259 28.2 86.3339 28.424 85.6619 28.424C84.9899 28.424 84.3659 28.184 83.7899 27.704C83.2459 27.224 82.9739 26.632 82.9739 25.928ZM101.065 53.384C99.6574 53.384 98.2814 53.144 96.9374 52.664C95.6254 52.152 94.5374 51.4 93.6734 50.408L95.5454 47.816C96.3774 48.616 97.2254 49.224 98.0894 49.64C98.9854 50.024 99.8654 50.216 100.729 50.216C101.369 50.216 101.961 50.136 102.505 49.976C103.049 49.816 103.481 49.56 103.801 49.208C104.153 48.824 104.329 48.312 104.329 47.672C104.329 46.968 104.089 46.408 103.609 45.992C103.161 45.576 102.569 45.24 101.833 44.984C101.129 44.728 100.377 44.488 99.5774 44.264C97.9454 43.72 96.6974 42.968 95.8334 42.008C94.9694 41.048 94.5374 39.88 94.5374 38.504C94.5374 37.448 94.7934 36.472 95.3054 35.576C95.8494 34.648 96.6334 33.896 97.6574 33.32C98.7134 32.744 100.009 32.456 101.545 32.456C102.921 32.456 104.153 32.632 105.241 32.984C106.329 33.304 107.353 33.848 108.313 34.616L106.537 37.4C105.961 36.792 105.273 36.344 104.473 36.056C103.673 35.768 102.953 35.608 102.313 35.576C101.769 35.544 101.241 35.624 100.729 35.816C100.249 36.008 99.8494 36.28 99.5294 36.632C99.2094 36.984 99.0494 37.4 99.0494 37.88C99.0494 38.552 99.2734 39.096 99.7214 39.512C100.169 39.928 100.745 40.264 101.449 40.52C102.185 40.744 102.905 40.984 103.609 41.24C104.601 41.528 105.481 41.912 106.249 42.392C107.017 42.872 107.625 43.464 108.073 44.168C108.553 44.872 108.793 45.752 108.793 46.808C108.793 47.992 108.505 49.096 107.929 50.12C107.385 51.112 106.537 51.912 105.385 52.52C104.265 53.096 102.825 53.384 101.065 53.384ZM116.868 36.776C115.876 36.776 115.028 36.472 114.324 35.864C113.62 35.256 113.268 34.344 113.268 33.128V31.256H116.676V31.88C116.676 32.392 116.804 32.728 117.06 32.888C117.316 33.048 117.732 33.128 118.308 33.128H131.028L119.124 50.264L118.26 49.304H130.884V53L112.5 53L124.644 35.528L125.412 36.776H116.868ZM137.263 53V15.848H141.727V53H137.263ZM146.527 39.8L155.647 53H150.415L143.551 42.296L146.527 39.8ZM140.335 46.664L139.903 42.392L151.951 32.696L154.687 35.048L140.335 46.664ZM161.169 33.128H165.633V53H161.169V33.128ZM160.833 25.928C160.833 25.224 161.105 24.632 161.649 24.152C162.225 23.672 162.849 23.432 163.521 23.432C164.193 23.432 164.785 23.672 165.297 24.152C165.841 24.632 166.113 25.224 166.113 25.928C166.113 26.664 165.841 27.272 165.297 27.752C164.785 28.2 164.193 28.424 163.521 28.424C162.849 28.424 162.225 28.184 161.649 27.704C161.105 27.224 160.833 26.632 160.833 25.928Z" fill="white"/>
</svg>
